<svg width="26" height="28" viewBox="0 0 26 28" fill="none" xmlns="http://www.w3.org/2000/svg">
<mask id="path-1-inside-1_0_313" fill="white">
<path fill-rule="evenodd" clip-rule="evenodd" d="M5 13C5 9.13401 8.13401 6 12 6C15.866 6 19 9.13401 19 13V19.5H22V22.5H2V19.5H5V13ZM12 28C9.79086 28 8 26.2091 8 24H16C16 26.2091 14.2091 28 12 28Z"/>
</mask>
<path fill-rule="evenodd" clip-rule="evenodd" d="M5 13C5 9.13401 8.13401 6 12 6C15.866 6 19 9.13401 19 13V19.5H22V22.5H2V19.5H5V13ZM12 28C9.79086 28 8 26.2091 8 24H16C16 26.2091 14.2091 28 12 28Z" fill="white"/>
<path d="M19 19.5H18V20.5H19V19.5ZM22 19.5H23V18.5H22V19.5ZM22 22.5V23.5H23V22.5H22ZM2 22.5H1V23.5H2V22.5ZM2 19.5V18.5H1V19.5H2ZM5 19.5V20.5H6V19.5H5ZM8 24V23H7V24H8ZM16 24H17V23H16V24ZM12 5C7.58172 5 4 8.58172 4 13H6C6 9.68629 8.68629 7 12 7V5ZM20 13C20 8.58172 16.4183 5 12 5V7C15.3137 7 18 9.68629 18 13H20ZM20 19.5V13H18V19.5H20ZM22 18.5H19V20.5H22V18.5ZM23 22.5V19.5H21V22.5H23ZM2 23.5H22V21.5H2V23.5ZM1 19.5V22.5H3V19.5H1ZM5 18.5H2V20.5H5V18.5ZM4 13V19.5H6V13H4ZM7 24C7 26.7614 9.23858 29 12 29V27C10.3431 27 9 25.6569 9 24H7ZM16 23H8V25H16V23ZM12 29C14.7614 29 17 26.7614 17 24H15C15 25.6569 13.6569 27 12 27V29Z" fill="white" mask="url(#path-1-inside-1_0_313)"/>
<g filter="url(#filter0_d_0_313)">
<circle cx="19" cy="7" r="5" fill="#728860"/>
</g>
<defs>
<filter id="filter0_d_0_313" x="10" y="0" width="16" height="16" filterUnits="userSpaceOnUse" color-interpolation-filters="sRGB">
<feFlood flood-opacity="0" result="BackgroundImageFix"/>
<feColorMatrix in="SourceAlpha" type="matrix" values="0 0 0 0 0 0 0 0 0 0 0 0 0 0 0 0 0 0 127 0" result="hardAlpha"/>
<feOffset dx="-1" dy="1"/>
<feGaussianBlur stdDeviation="1.5"/>
<feColorMatrix type="matrix" values="0 0 0 0 0 0 0 0 0 0 0 0 0 0 0 0 0 0 0.2 0"/>
<feBlend mode="normal" in2="BackgroundImageFix" result="effect1_dropShadow_0_313"/>
<feBlend mode="normal" in="SourceGraphic" in2="effect1_dropShadow_0_313" result="shape"/>
</filter>
</defs>
</svg>
