<svg width="32" height="32" viewBox="0 0 32 32" fill="none" xmlns="http://www.w3.org/2000/svg">
<g clip-path="url(#clip0_0_203)">
<path fill-rule="evenodd" clip-rule="evenodd" d="M11.1483 0.700439H0V1.90574L11.1483 1.90574V0.700439ZM8.13802e-05 2.88989L10.0855 2.88989V4.09519L8.14856e-05 4.09519L8.13802e-05 2.88989ZM0 5.07918H6.94473V6.28448H0V5.07918ZM22.4616 3.74009C22.4616 5.29098 21.2044 6.54822 19.6535 6.54822C18.1026 6.54822 16.8454 5.29098 16.8454 3.74009C16.8454 2.18921 18.1026 0.931966 19.6535 0.931966C21.2044 0.931966 22.4616 2.18921 22.4616 3.74009ZM21.4972 9.08299L12.4337 5.78715L6.27334 9.63735L8.39334 13.0293L12.8997 10.2129L14.6911 10.8643L10.0898 18.9757L18.2195 23.017L16.1026 29.3676L19.8974 30.6325L23.1139 20.983L15.6536 17.2745L18.5031 12.2511L20.7546 17.5046L27.5814 16.6512L27.0853 12.6821L23.2454 13.1621L21.4972 9.08299ZM11.2248 25.3333L13.031 21.7938L9.4681 19.9756L8.77526 21.3333H4.00001V25.3333H11.2248Z" fill="#010101"/>
</g>
<defs>
<clipPath id="clip0_0_203">
<rect width="32" height="32" fill="white"/>
</clipPath>
</defs>
</svg>
